<svg xmlns="http://www.w3.org/2000/svg" width="210" height="46"><g fill="#FFF"><path d="M24.4 39A16 16 0 0 1 19 27a16 16 0 0 1 29.6-8.5 15.8 15.8 0 0 0-12-5.4A15.8 15.8 0 0 0 24.4 39zm14.3-1.2a5 5 0 1 1 5.5-7.6 4.7 4.7 0 1 0-5.5 7.6zm18.7-12.5c-.2.4-.6.6-1 .6h-2c-.6 0-.8-.3-.5-.8l6.5-12.3c.3-.6 1-.9 2.2-.9 1.2 0 2 .3 2.2.8l5 9.5 5-9.4c.3-.6 1-.9 2.2-.9 1.2 0 2 .3 2.2.8l6.4 12.4c.3.5.1.8-.5.8h-1.9c-.5 0-.9-.2-1-.6l-4.6-9c-.4-1.1-.8-1.1-1.2 0L72 24.8c-.7.7-1.3 1-1.8 1H69c-.5 0-1-.3-1.6-1l-4.3-8.7c-.4-1-.8-1-1.2 0l-4.6 9zm34.8-5v1.8c0 .7.4 1 1.1 1h11.9c1 0 1.5.5 1.5 1.4 0 1-.5 1.4-1.6 1.4H90.6c-1.3 0-2-.5-2-1.6V13.6c0-1.1.6-1.7 1.9-1.7h14.7c1 0 1.5.4 1.5 1.4 0 1-.5 1.4-1.5 1.4H93.3c-.7 0-1 .3-1 1v1.8h5.9c1.2 0 1.9.5 1.9 1.4 0 1-.7 1.4-2 1.4h-5.9zm26 0c-1.2 0-1.9-.4-1.9-1.4 0-.9.6-1.3 1.9-1.4h3.8c1 0 1.7-.2 2-.6l.1-.3V16c0-.3 0-.6-.2-.8-.1-.1-.4-.3-1-.4a7.3 7.3 0 0 0-1-.1h-7.4c-.9 0-1.3.2-1.3 1v8.7c0 1-.5 1.4-1.8 1.4-1.2 0-1.8-.5-1.8-1.4V13.7c0-1.2.7-1.8 2-1.8h8.8c3.2 0 5.3.7 6.5 2 .6.6.9 1.3.9 2.2-.1 1.7-1 2.7-2.7 3 1.7.3 2.5 1.1 2.6 2.6v2.8c0 1-.6 1.4-1.8 1.4-1.2 0-1.8-.5-1.8-1.4v-2.8a.8.8 0 0 0 0-.4 1.3 1.3 0 0 0-.1-.3c-.3-.5-1-.7-2-.7h-3.7zm30.5 4.2c0 1-.5 1.4-1.5 1.4h-7.5c-2.7 0-5-.6-6.6-1.9a6 6 0 0 1-2.5-5 6 6 0 0 1 2.5-5.1c1.7-1.3 3.9-2 6.5-2h7.6c1 0 1.5.4 1.5 1.4 0 1-.5 1.4-1.5 1.4h-7.6c-1.5 0-2.8.4-3.9 1.2-1 .8-1.5 1.8-1.5 3 0 1.8 1 3 2.8 3.8.9.3 1.8.4 2.6.4h7.6c1 0 1.5.5 1.5 1.4zm21-10.8v5.2a6 6 0 0 1-2.4 5.1c-1.7 1.3-3.9 2-6.6 2-2.7 0-5-.7-6.6-2a6 6 0 0 1-2.5-5v-5.7c0-.9.6-1.3 1.8-1.4 1.3 0 1.9.5 1.8 1.4V19c0 1.8 1 3 2.8 3.8 1 .3 1.8.4 2.7.4 2 0 3.7-.6 4.7-1.9l.5-1a3.5 3.5 0 0 0 .2-1.3v-5.6c0-1 .5-1.4 1.8-1.4 1.2 0 1.8.5 1.8 1.4v.4zm11.6 6.6c-1.3 0-2-.4-2-1.4 0-.9.6-1.3 1.9-1.4h3.8c1 0 1.7-.2 2-.6l.1-.3V16c0-.3 0-.6-.2-.8-.1-.1-.4-.3-1-.4a7.3 7.3 0 0 0-1-.1h-7.4c-.9 0-1.3.2-1.3 1v8.7c0 1-.5 1.4-1.8 1.4-1.2 0-1.8-.5-1.8-1.4V13.7c0-1.2.7-1.8 2-1.8h8.8c3.2 0 5.3.7 6.5 2 .6.6.9 1.3.9 2.2-.1 1.7-1 2.7-2.7 3 1.7.3 2.5 1.1 2.6 2.6v2.8c0 1-.6 1.4-1.8 1.4-1.2 0-1.8-.5-1.8-1.4v-2.8a.8.8 0 0 0 0-.4 1.3 1.3 0 0 0-.1-.3c-.3-.5-1-.7-2-.7h-3.7zm21.7 4.2c0 1-.6 1.4-1.8 1.4-1.3 0-1.9-.5-1.8-1.4v-5.4l-.2-.2-.3-.3-.6-.6a135.4 135.4 0 0 1-2.5-2.6l-2.2-2.3c-.6-.6-.5-1 .5-1.2h1.1c1 0 1.8.3 2.4 1l3 3.1c.5.4 1 .4 1.4 0l3.1-3.2c.5-.6 1.2-.9 2.1-.9h1.6c1.2 0 1.5.3 1 .9L203 19v5.4z"/><path fill-opacity=".5" d="M7.3 6.2c-1.1 1.5 23 20.3 28.6 24l-.3.3c-3.6-1.7-8-4.7-14.4-9C8.8 12.8-.2 4.3 1.2 2.5c1.3-1.9 12 3.3 24.3 11.7h-.1c-3.6-2-17.2-9.2-18-8zm54.1 28.6c0 .5-.1.9-.5 1.2-.4.3-.9.4-1.5.4h-4.9v-6.7h4.8c1.4 0 2.1.5 2.1 1.5v3.6zm-1.3-.3v-3c0-.6-.4-.9-1.2-.9h-3v4.8h3c.8 0 1.2-.3 1.2-.9zm14.8-1h-4.5v1.2c0 .5.4.7 1.2.7h3.6v1h-4c-.6 0-1.2-.1-1.6-.4-.4-.2-.6-.6-.6-1v-3.8c0-.5.2-.9.6-1.1.3-.3.9-.4 1.5-.4h4.1v1h-3.6c-.8 0-1.2.2-1.2.7v1.1h4.5v1zm15.6-3.8l-3.1 6.2a1 1 0 0 1-1 .6 1 1 0 0 1-1-.6l-3.2-6.2h1.5l2.7 5.4 2.7-5.4h1.4zm12.7 3.8h-4.6v1.2c0 .5.4.7 1.2.7h3.6v1h-4c-.6 0-1.2-.1-1.5-.4-.5-.2-.7-.6-.7-1v-3.8c0-.5.2-.9.6-1.1.4-.3.9-.4 1.5-.4h4.1v1h-3.6c-.8 0-1.2.2-1.2.7v1.1h4.6v1zm14.3 2.9h-3.7a4 4 0 0 1-1.8-.4c-.5-.2-.7-.6-.7-1.2v-5.1h1.4v4.8c0 .4.1.6.3.8l1.2.1h3.3v1zm13.6-1.5c0 1-.7 1.5-2.3 1.5h-2c-.8 0-1.4-.1-1.7-.3-.5-.3-.7-.7-.7-1.2v-3.7c0-.5.3-1 .7-1.2a3 3 0 0 1 1.6-.3h2.2c1.5 0 2.2.5 2.2 1.5v3.7zm-1.3-.3v-3.1c0-.3-.1-.6-.3-.7l-1-.2h-1.4l-1 .2c-.2.1-.3.4-.3.7v3c0 .4.1.6.3.7l1 .2h1.4c.5 0 .8 0 1-.2.2 0 .3-.3.3-.6zm15.8-2.2c0 .5-.2.8-.6 1-.3.3-.8.5-1.5.5h-3.4v2.5h-1.4v-6.8h4.7a3 3 0 0 1 1.5.4c.5.2.7.5.7 1v1.4zm-1.4-.3v-.8c0-.5-.4-.7-1.1-.7h-3V33h3c.7 0 1-.3 1-.8zm18.5 4.3h-1.4v-5.3l-2.4 4.7c-.3.5-.6.7-1 .7a1 1 0 0 1-.7-.2 1.7 1.7 0 0 1-.3-.4l-2.5-4.8v5.3h-1.3v-5.8c0-.3 0-.5.3-.7l.9-.2c.5 0 1 .2 1.1.6l2.5 4.8 2.4-4.8c.2-.4.6-.6 1.2-.6.4 0 .7 0 .9.2a.8.8 0 0 1 .3.7v5.8zm13.5-2.9h-4.6v1.2c0 .5.4.7 1.2.7h3.6v1h-4c-.6 0-1.2-.1-1.5-.4-.5-.2-.7-.6-.7-1v-3.8c0-.5.2-.9.6-1.1.4-.3.9-.4 1.5-.4h4.1v1h-3.6c-.8 0-1.2.2-1.2.7v1.1h4.6v1zm15 2a.8.8 0 0 1-.3.7c-.2.2-.5.3-.8.3-.4 0-.6 0-.8-.2l-.4-.6-3.3-4.7v5.4h-1.3v-5.8c0-.6.4-1 1.2-1 .3 0 .6.1.7.3l.5.5 3.2 4.8v-5.5h1.3v5.9zm13-4.9H202v5.8h-1.4v-5.8H198v-1h6.2v1z"/></g></svg>